<svg xmlns="http://www.w3.org/2000/svg" xmlns:xlink="http://www.w3.org/1999/xlink" width="32" height="32" viewBox="0 0 32 32"><defs><path id="gipba" d="M1111 5461c8.837 0 16 7.163 16 16s-7.163 16-16 16c-8.836 0-16-7.163-16-16s7.164-16 16-16zm-10 21.771h5.964c2.224 0 4.344-1.016 4.344-3.392 0-1.457-.758-2.555-2.258-2.965 1.07-.491 1.672-1.293 1.672-2.441 0-2.179-1.585-2.973-3.93-2.973H1101zm2.475-9.797h2.766c.964 0 1.861.23 1.861 1.344 0 .982-.707 1.391-1.655 1.391h-2.972zm0 4.685h3.18c1.154 0 1.869.475 1.869 1.67 0 1.214-.853 1.54-1.922 1.54h-3.127zm17.353 1.171c.172-2.605-1.293-4.758-4.327-4.758-2.705 0-4.576 1.933-4.576 4.473 0 2.62 1.767 4.455 4.576 4.455 2.018 0 3.587-1.048 4.275-3.048h-2.154c-.155.525-1.052 1.295-2.035 1.295-1.361 0-2.12-.942-2.188-2.417zm-6.429-1.523c.034-.655.482-1.482 2.033-1.482 1.19 0 1.725.303 1.949 1.482zm4.756-5.516h-4.931v1.573h4.931z"/></defs><g><g transform="translate(-1095 -5461)"><use fill="#0188f5" xlink:href="#gipba"/><use fill="#ebebeb" xlink:href="#gipba"/></g></g></svg>