<svg xmlns="http://www.w3.org/2000/svg" xmlns:xlink="http://www.w3.org/1999/xlink" width="32" height="32" viewBox="0 0 32 32"><defs><path id="ax84a" d="M1226 5461c8.837 0 16 7.166 16 16.004 0 8.84-7.163 16.006-16 16.006-.555 0-1.103-.029-1.643-.084 2.56-1.258 3.889-3.45 3.889-5.625 0-2.447-1.367-3.652-2.873-4.963l-1.232-.994c-.376-.318-.89-.743-.89-1.523 0-.78.514-1.276.96-1.737 1.435-1.17 2.872-2.41 2.872-5.033 0-2.695-1.642-4.113-2.429-4.786h2.121l2.19-1.276h-7.047c-1.848 0-4.173.284-6.123 1.95-1.471 1.311-2.19 3.119-2.19 4.75 0 2.765 2.053 5.565 5.679 5.565.342 0 .718-.036 1.095-.071-.172.425-.342.78-.342 1.383 0 1.098.546 1.772 1.025 2.41-1.538.106-4.412.283-6.533 1.63a5.857 5.857 0 0 0-1.679 1.52 15.935 15.935 0 0 1-2.85-9.122c0-8.838 7.163-16.004 16-16.004zm-3.775 23.004c2.601 1.914 3.729 2.87 3.729 4.68 0 1.982-1.42 3.502-4.11 3.78a15.976 15.976 0 0 1-6.922-3.911 3.91 3.91 0 0 1-.017-.366c0-2.517 2.19-3.368 2.942-3.651 1.437-.497 3.284-.569 3.592-.569.341 0 .513 0 .786.037zm.994-6.735c-.548.567-1.473.992-2.328.992-2.942 0-4.276-3.935-4.276-6.31 0-.92.17-1.878.753-2.622.548-.71 1.505-1.17 2.394-1.17 2.84 0 4.311 3.97 4.311 6.522 0 .638-.07 1.773-.854 2.588zm8.687-2.27h2v-3h3v-2h-3v-3h-2v3h-3v2h3z"/></defs><g><g transform="translate(-1210 -5461)"><use fill="#da4935" xlink:href="#ax84a"/><use fill="#ebebeb" xlink:href="#ax84a"/></g></g></svg>